<svg width="24" height="23" viewBox="0 0 24 23" fill="none" xmlns="http://www.w3.org/2000/svg">
<g clip-path="url(#clip0_105_404)">
<path d="M22.614 4.116C22.3608 3.86035 22.0594 3.65747 21.7273 3.51912C21.3951 3.38076 21.0388 3.30969 20.679 3.31H6.389L6.274 2.684C6.13756 1.93061 5.74078 1.24911 5.15296 0.758524C4.56513 0.267941 3.82364 -0.000532365 3.058 7.92565e-07H1C0.734784 7.92565e-07 0.48043 0.105358 0.292893 0.292894C0.105357 0.48043 0 0.734784 0 1C0 1.26522 0.105357 1.51957 0.292893 1.70711C0.48043 1.89464 0.734784 2 1 2H3.058C3.35536 2.00013 3.64324 2.10459 3.87148 2.29519C4.09972 2.48579 4.25385 2.75043 4.307 3.043L4.535 4.287C4.535 4.295 4.535 4.302 4.535 4.31C4.53503 4.44546 4.56259 4.57951 4.616 4.704L6.59 15.466C6.7272 16.2192 7.12434 16.9004 7.7122 17.3909C8.30007 17.8813 9.0414 18.15 9.807 18.15H19.285C19.5502 18.15 19.8046 18.0446 19.9921 17.8571C20.1796 17.6696 20.285 17.4152 20.285 17.15C20.285 16.8848 20.1796 16.6304 19.9921 16.4429C19.8046 16.2554 19.5502 16.15 19.285 16.15H9.807C9.50938 16.1499 9.22124 16.0453 8.99282 15.8545C8.76439 15.6637 8.61015 15.3988 8.557 15.106L8.533 14.973H19.482C20.116 14.97 20.7293 14.7474 21.2177 14.3433C21.7061 13.9391 22.0394 13.3782 22.161 12.756L23.361 6.563C23.3937 6.39497 23.4101 6.22418 23.41 6.053C23.4114 5.69327 23.3414 5.33682 23.2041 5.00433C23.0668 4.67183 22.8649 4.36989 22.61 4.116H22.614ZM21.4 6.185L20.2 12.376C20.1681 12.5436 20.0791 12.6949 19.9482 12.8043C19.8173 12.9137 19.6526 12.9744 19.482 12.976H8.165L6.757 5.31H20.677C20.7737 5.31039 20.8694 5.32985 20.9587 5.36727C21.0479 5.40468 21.1288 5.45931 21.1969 5.52804C21.265 5.59677 21.3188 5.67825 21.3554 5.76781C21.392 5.85737 21.4105 5.95326 21.41 6.05C21.4098 6.0953 21.4054 6.14049 21.397 6.185" fill="white"/>
<path d="M10.215 19C9.83289 19 9.45935 19.1133 9.14164 19.3256C8.82392 19.5379 8.57629 19.8396 8.43007 20.1927C8.28384 20.5457 8.24558 20.9341 8.32012 21.3089C8.39467 21.6837 8.57867 22.0279 8.84887 22.2981C9.11906 22.5683 9.46331 22.7523 9.83809 22.8269C10.2129 22.9014 10.6013 22.8632 10.9543 22.7169C11.3074 22.5707 11.6091 22.3231 11.8214 22.0054C12.0337 21.6876 12.147 21.3141 12.147 20.932C12.147 20.4196 11.9435 19.9282 11.5811 19.5659C11.2188 19.2036 10.7274 19 10.215 19Z" fill="white"/>
<path d="M18.6 19C18.2179 19 17.8444 19.1133 17.5266 19.3256C17.2089 19.5379 16.9613 19.8396 16.8151 20.1927C16.6688 20.5457 16.6306 20.9341 16.7051 21.3089C16.7797 21.6837 16.9637 22.0279 17.2339 22.2981C17.5041 22.5683 17.8483 22.7523 18.2231 22.8269C18.5979 22.9014 18.9863 22.8632 19.3393 22.7169C19.6924 22.5707 19.9941 22.3231 20.2064 22.0054C20.4187 21.6876 20.532 21.3141 20.532 20.932C20.532 20.4196 20.3285 19.9282 19.9661 19.5659C19.6038 19.2036 19.1124 19 18.6 19" fill="white"/>
</g>
<defs>
<clipPath id="clip0_105_404">
<rect width="23.41" height="22.862" fill="white"/>
</clipPath>
</defs>
</svg>
