<svg width="28" height="27" viewBox="0 0 28 27" fill="none" xmlns="http://www.w3.org/2000/svg">
<path d="M14 27C21.732 27 28 20.9558 28 13.5C28 6.04416 21.732 0 14 0C6.26801 0 0 6.04416 0 13.5C0 20.9558 6.26801 27 14 27Z" fill="#E37C33"/>
<path d="M10.216 18.779C10.168 18.732 10.1335 18.673 10.1159 18.6081C10.0983 18.5433 10.0983 18.4749 10.116 18.41L10.976 15.3161C11.0676 14.9748 11.2485 14.6642 11.5 14.4161L17.356 8.55505C17.5388 8.37788 17.7834 8.27881 18.038 8.27881C18.2926 8.27881 18.5371 8.37788 18.72 8.55505L20.44 10.2791C20.6192 10.4606 20.7197 10.7054 20.7197 10.9606C20.7197 11.2157 20.6192 11.4605 20.44 11.6421L14.585 17.5061C14.3366 17.7575 14.0261 17.9386 13.685 18.031L10.585 18.88C10.5526 18.8897 10.5187 18.8937 10.485 18.892C10.3841 18.8905 10.2877 18.85 10.216 18.779V18.779Z" fill="white" stroke="black"/>
</svg>
