<svg width="28" height="28" viewBox="0 0 28 28" fill="none" xmlns="http://www.w3.org/2000/svg">
<g clip-path="url(#clip0_115_388)">
<path d="M27.318 13.6592C27.3177 11.049 26.5694 8.4935 25.1618 6.2953C23.7543 4.09711 21.7463 2.34826 19.3757 1.2558C17.005 0.163343 14.371 -0.226971 11.7854 0.131066C9.19988 0.489102 6.77104 1.5805 4.78648 3.27604C2.80191 4.97158 1.34474 7.20027 0.587461 9.69824C-0.169816 12.1962 -0.195481 14.8589 0.513506 17.371C1.22249 19.8831 2.63644 22.1395 4.58795 23.8729C6.53946 25.6064 8.94681 26.7444 11.525 27.1522V17.6082H8.057V13.6592H11.524V10.6502C11.524 7.22623 13.564 5.33523 16.683 5.33523C17.7075 5.3493 18.7295 5.4382 19.741 5.60123V8.96323H18.019C17.7252 8.92415 17.4263 8.95175 17.1446 9.04398C16.8629 9.13621 16.6055 9.2907 16.3917 9.49599C16.1778 9.70128 16.013 9.9521 15.9093 10.2298C15.8057 10.5075 15.7659 10.805 15.793 11.1002V13.6622H19.581L18.975 17.6112H15.793V27.1552C19.0063 26.6463 21.9326 25.0074 24.0453 22.5334C26.158 20.0594 27.3185 16.9126 27.318 13.6592V13.6592Z" fill="#4172B8"/>
</g>
<defs>
<clipPath id="clip0_115_388">
<rect width="27.318" height="27.152" fill="white"/>
</clipPath>
</defs>
</svg>
