<svg width="164" height="32" viewBox="0 0 164 32" fill="none" xmlns="http://www.w3.org/2000/svg">
<path d="M10.917 15.5388C12.7086 14.9662 14.5455 14.5467 16.408 14.2848H16.443L16.917 14.2378C16.917 14.2378 15.083 22.7378 9.95301 26.8558C4.82301 30.9738 -0.563996 26.6258 1.653 21.8988C3.147 18.7188 6.98101 16.7468 10.914 15.5428" fill="#E44E41"/>
<path d="M16.416 13.226H16.381C14.5014 13.1938 12.6279 13.0011 10.781 12.65C6.73101 11.935 2.68101 10.445 0.814014 7.47C-1.96499 3.05 2.85102 -1.92101 8.44602 1.53999C14.041 5.00099 16.896 13.215 16.896 13.215L16.445 13.227L16.416 13.226Z" fill="#E37D34"/>
<path d="M24.279 12.5738C22.452 13.0209 20.5903 13.3116 18.714 13.4428H18.678L18.202 13.4568C18.202 13.4568 20.624 5.10384 26.03 1.35684C31.436 -2.39016 36.505 2.32084 33.96 6.87984C32.248 9.94784 28.286 11.6478 24.278 12.5798" fill="#52B449"/>
<path d="M22.334 18.0137H22.369C24.2427 18.1778 26.0991 18.5009 27.918 18.9798C31.908 19.9798 35.841 21.7458 37.499 24.8418C39.964 29.4418 34.812 34.0677 29.473 30.2247C24.134 26.3817 21.858 17.9897 21.858 17.9897L22.309 18.0087L22.334 18.0137Z" fill="#185BA5"/>
<path d="M160.828 6.69982C160.821 7.17876 160.627 7.63598 160.288 7.97459C159.949 8.3132 159.492 8.50661 159.013 8.51383C158.777 8.51641 158.542 8.46984 158.324 8.37705C158.107 8.28427 157.911 8.1473 157.749 7.97483C157.58 7.80889 157.445 7.61041 157.354 7.39132C157.263 7.17222 157.218 6.93702 157.22 6.69982C157.223 6.22543 157.413 5.77136 157.748 5.43581C158.084 5.10027 158.538 4.91023 159.012 4.90682C159.249 4.90458 159.484 4.95029 159.704 5.04119C159.923 5.13209 160.121 5.26633 160.287 5.43583C160.46 5.59766 160.597 5.79357 160.69 6.01115C160.783 6.22873 160.829 6.46323 160.827 6.69982H160.828ZM163.032 20.0318C163.083 20.5513 162.931 21.0704 162.607 21.4798C162.211 21.8042 161.703 21.9588 161.193 21.9098C160.691 21.9427 160.188 21.8707 159.715 21.6985C159.242 21.5264 158.81 21.2578 158.447 20.9098C157.764 20.1097 157.422 19.0735 157.494 18.0238V9.63783H158.367C158.96 9.6036 159.543 9.80565 159.988 10.1998C160.199 10.4339 160.359 10.7085 160.46 11.0069C160.56 11.3052 160.599 11.621 160.573 11.9348V17.7258C160.545 17.9582 160.568 18.194 160.642 18.4163C160.715 18.6386 160.837 18.842 160.998 19.0118C161.434 19.2828 161.946 19.4039 162.457 19.3568H163.032V20.0318ZM49.746 10.2598C49.4994 9.9386 49.1939 9.66714 48.846 9.45983C48.4909 9.24325 48.1134 9.06587 47.72 8.93082C47.3323 8.79532 46.932 8.69916 46.525 8.64382C46.1605 8.59312 45.793 8.5664 45.425 8.56382C44.7562 8.5566 44.0926 8.68132 43.472 8.93082C42.8899 9.16573 42.3621 9.51728 41.921 9.96383C41.4757 10.4226 41.128 10.9669 40.899 11.5638C40.6461 12.2277 40.5212 12.9335 40.531 13.6438C40.5163 14.4668 40.6407 15.2863 40.899 16.0678C41.1145 16.7146 41.4626 17.3092 41.921 17.8138C42.3597 18.2824 42.9027 18.6408 43.506 18.8598C44.158 19.0951 44.8469 19.2119 45.54 19.2048C45.9371 19.203 46.3331 19.1642 46.723 19.0888C47.1173 19.015 47.5054 18.9113 47.884 18.7788C48.2388 18.6544 48.581 18.4967 48.906 18.3078C49.1994 18.1408 49.4666 17.9316 49.699 17.6868H49.814V18.8598C49.826 19.357 49.6766 19.8447 49.388 20.2498C49.0961 20.6476 48.7207 20.9766 48.288 21.2138C47.8192 21.4735 47.3133 21.6596 46.788 21.7658C46.2441 21.8801 45.6898 21.9378 45.134 21.9378C44.1151 21.9429 43.1047 21.7518 42.158 21.3748C41.2371 21.0139 40.3961 20.4754 39.683 19.7898C38.9619 19.0889 38.391 18.2485 38.005 17.3198C37.5843 16.3002 37.3751 15.2057 37.39 14.1028C37.3771 12.9662 37.5741 11.837 37.971 10.7718C38.3354 9.79896 38.8902 8.90858 39.603 8.15282C40.3158 7.40893 41.1789 6.82562 42.135 6.44183C43.176 6.02552 44.2889 5.81858 45.41 5.83283C46.0089 5.82808 46.6064 5.89352 47.19 6.02782C47.6931 6.14191 48.1716 6.34512 48.603 6.62783C48.9907 6.88446 49.3102 7.2314 49.534 7.63883C49.763 8.07398 49.8776 8.56021 49.867 9.05183V10.2698L49.746 10.2598ZM57.365 20.0318C57.4163 20.5513 57.2639 21.0704 56.94 21.4798C56.5443 21.8041 56.0363 21.9587 55.527 21.9098C55.0251 21.9426 54.5219 21.8706 54.0494 21.6984C53.5768 21.5263 53.1452 21.2577 52.782 20.9098C52.0981 20.11 51.7555 19.0737 51.828 18.0238V9.63783H52.701C53.2941 9.60332 53.8767 9.80542 54.321 10.1998C54.5321 10.4337 54.6931 10.7082 54.794 11.0066C54.895 11.305 54.9337 11.6209 54.908 11.9348V17.7258C54.8797 17.9582 54.903 18.1939 54.9763 18.4162C55.0496 18.6385 55.1711 18.8419 55.332 19.0118C55.7678 19.2827 56.2801 19.4038 56.791 19.3568H57.365V20.0318ZM55.159 6.69982C55.152 7.17892 54.9585 7.63643 54.6196 7.97515C54.2807 8.31387 53.8231 8.50712 53.344 8.51383C53.1076 8.5164 52.8733 8.46979 52.6559 8.37701C52.4385 8.28422 52.2427 8.14727 52.081 7.97483C51.9119 7.80867 51.778 7.61013 51.6873 7.39108C51.5965 7.17202 51.5509 6.93691 51.553 6.69982C51.5548 6.22503 51.7442 5.77019 52.0799 5.43436C52.4155 5.09854 52.8702 4.90893 53.345 4.90682C53.5824 4.9045 53.8177 4.95017 54.037 5.04107C54.2563 5.13197 54.4549 5.26625 54.621 5.43583C54.7935 5.59775 54.9304 5.79369 55.0232 6.01127C55.1159 6.22884 55.1625 6.4633 55.16 6.69982H55.159ZM68.224 13.3858C67.9339 12.9723 67.5258 12.6559 67.053 12.4778C66.3595 12.2016 65.6161 12.0725 64.87 12.0988C64.4287 12.0978 63.9914 12.1835 63.583 12.3508C63.181 12.5119 62.8142 12.7496 62.503 13.0508C62.196 13.3515 61.9469 13.7061 61.768 14.0968C61.5824 14.501 61.4879 14.9411 61.491 15.3858C61.4444 16.3834 61.7722 17.3624 62.41 18.1308C62.7234 18.4793 63.1102 18.7538 63.5425 18.9345C63.9749 19.1152 64.4419 19.1976 64.91 19.1758C65.6392 19.2038 66.3663 19.0827 67.047 18.8198C67.4829 18.655 67.8699 18.3826 68.172 18.0278H68.287V19.4518C68.2879 19.819 68.1968 20.1805 68.0222 20.5035C67.8475 20.8264 67.5948 21.1005 67.287 21.3008C66.494 21.8199 65.5565 22.0734 64.61 22.0248C63.383 22.0356 62.1793 21.6895 61.1453 21.0287C60.1113 20.3679 59.2916 19.4209 58.786 18.3028C58.4366 17.531 58.2601 16.692 58.269 15.8448C58.2642 14.982 58.416 14.1255 58.717 13.3168C59.0046 12.5371 59.4506 11.8255 60.027 11.2268C60.6231 10.6145 61.3376 10.13 62.127 9.80283C63.0235 9.43703 63.9849 9.25705 64.953 9.27383C65.413 9.26922 65.8706 9.33946 66.308 9.48182C66.6966 9.60584 67.059 9.80043 67.377 10.0558C67.6657 10.2887 67.9038 10.5779 68.077 10.9058C68.2447 11.2246 68.3316 11.5796 68.33 11.9398V13.3858H68.224ZM80.786 13.9148C80.8254 14.4012 80.7144 14.8879 80.4679 15.3089C80.2214 15.73 79.8514 16.0651 79.408 16.2688C77.9901 16.7882 76.4805 17.0108 74.973 16.9228H72.951C73.0023 17.2947 73.1297 17.652 73.3253 17.9724C73.521 18.2928 73.7806 18.5694 74.088 18.7848C74.7712 19.2581 75.5884 19.4993 76.419 19.4728C77.0964 19.4689 77.7711 19.3877 78.43 19.2308C79.0965 19.0866 79.7117 18.7653 80.211 18.3008H80.326V19.2658C80.3291 19.6436 80.2546 20.018 80.107 20.3658C79.9443 20.724 79.6858 21.0303 79.36 21.2508C78.9379 21.5352 78.4665 21.7387 77.97 21.8508C77.2732 22.0096 76.5596 22.0828 75.845 22.0688C75.074 22.0679 74.3103 21.9196 73.595 21.6318C72.871 21.3485 72.2101 20.9251 71.65 20.3858C71.0454 19.7968 70.5677 19.0904 70.2461 18.3101C69.9245 17.5297 69.7659 16.6918 69.78 15.8478C69.7676 14.8986 69.9181 13.9542 70.225 13.0558C70.4921 12.271 70.9148 11.5482 71.468 10.9308C72.0001 10.3497 72.6522 9.89112 73.379 9.58683C74.154 9.26677 74.9857 9.10689 75.824 9.11683C76.4592 9.11562 77.0895 9.22806 77.685 9.44883C78.2693 9.663 78.8073 9.98679 79.27 10.4028C79.7365 10.828 80.1109 11.3443 80.37 11.9198C80.6517 12.5484 80.7927 13.231 80.783 13.9198L80.786 13.9148ZM77.888 13.5428C77.9073 13.2736 77.8596 13.0038 77.7493 12.7575C77.6391 12.5111 77.4696 12.2958 77.256 12.1308C76.7492 11.7981 76.1494 11.6359 75.544 11.6678C75.1909 11.6642 74.8414 11.7393 74.521 11.8878C74.2154 12.028 73.9387 12.224 73.705 12.4658C73.4721 12.7099 73.2887 12.9969 73.165 13.3108C73.0348 13.6352 72.9611 13.9795 72.947 14.3288L72.924 14.7458H74.302C75.0354 14.7458 75.6327 14.7225 76.094 14.6758C76.4643 14.6473 76.8302 14.5775 77.185 14.4678C77.4047 14.4085 77.5987 14.2785 77.737 14.0978C77.8398 13.931 77.8916 13.7377 77.886 13.5418L77.888 13.5428ZM84.048 5.25683C84.3436 5.22819 84.6418 5.26475 84.9217 5.36393C85.2017 5.46311 85.4564 5.62249 85.668 5.83083C86.0081 6.24331 86.1839 6.76671 86.162 7.30082V14.7008C86.762 13.9202 87.362 13.1465 87.962 12.3798C88.5736 11.6075 89.2378 10.8784 89.95 10.1978C90.2622 9.87742 90.655 9.64703 91.087 9.53083C91.521 9.43432 91.9645 9.38802 92.409 9.39283H94.179V9.50683C93.9637 9.69083 93.638 10.0128 93.202 10.4728C92.766 10.9328 92.3027 11.4382 91.812 11.9888C91.322 12.5408 90.8353 13.0998 90.352 13.6658C89.8687 14.2318 89.467 14.7222 89.147 15.1368C89.637 15.7495 90.131 16.3622 90.629 16.9748C91.127 17.5875 91.6514 18.1772 92.202 18.7438C92.478 19.0192 92.723 19.2488 92.937 19.4328C93.1251 19.5975 93.3257 19.7472 93.537 19.8808C93.7048 19.9878 93.8815 20.0801 94.065 20.1568C94.2344 20.2235 94.4107 20.2902 94.594 20.3568C94.465 20.7852 94.2277 21.173 93.905 21.4828C93.5008 21.7778 93.0036 21.9167 92.505 21.8738C92.1335 21.8701 91.7665 21.7915 91.426 21.6428C91.0738 21.501 90.7535 21.2902 90.484 21.0228C89.6937 20.2039 88.9457 19.3451 88.243 18.4498C87.5463 17.5618 86.8534 16.6578 86.164 15.7378V21.7808L85.175 21.8038C83.7663 21.8178 83.062 21.0905 83.062 19.6218V5.25182L84.048 5.25683ZM106.483 16.9278C106.494 17.6517 106.362 18.3706 106.093 19.0428C105.838 19.6624 105.445 20.216 104.945 20.6618C104.403 21.1344 103.77 21.4905 103.084 21.7078C102.267 21.9641 101.413 22.0876 100.557 22.0738C99.2988 22.1609 98.0437 21.8649 96.957 21.2248C96.5813 20.9827 96.2735 20.6489 96.0625 20.255C95.8515 19.861 95.7443 19.4197 95.751 18.9728V17.5728H95.821C96.3825 18.0647 97.0132 18.4714 97.693 18.7798C98.4854 19.1256 99.3437 19.2942 100.208 19.2738C101.063 19.3577 101.922 19.1604 102.654 18.7118C102.875 18.53 103.052 18.2995 103.169 18.0382C103.287 17.777 103.343 17.4921 103.332 17.2058C103.338 16.9634 103.299 16.7221 103.217 16.4938C103.112 16.2597 102.937 16.0632 102.717 15.9308C102.363 15.713 101.98 15.5467 101.579 15.4368C101.081 15.2828 100.418 15.1142 99.591 14.9308C98.4483 14.7367 97.3781 14.241 96.491 13.4948C96.1343 13.1632 95.8533 12.7585 95.6671 12.3085C95.4809 11.8584 95.3939 11.3735 95.412 10.8868C95.4109 10.2302 95.5472 9.58065 95.812 8.97982C96.0832 8.36207 96.4784 7.80661 96.973 7.34783C97.5133 6.85168 98.1451 6.46549 98.833 6.21082C99.6272 5.91674 100.469 5.77263 101.316 5.78582C102.087 5.76815 102.856 5.857 103.602 6.04983C104.125 6.18707 104.619 6.41667 105.061 6.72782C105.396 6.96356 105.662 7.2851 105.831 7.65882C105.97 7.97411 106.044 8.31422 106.049 8.65882V10.1068H105.957C105.425 9.57705 104.786 9.16609 104.083 8.90099C103.381 8.6359 102.63 8.52269 101.88 8.56882C100.985 8.49023 100.087 8.68218 99.303 9.11982C99.0669 9.28413 98.8753 9.50443 98.7453 9.76098C98.6153 10.0175 98.5509 10.3023 98.558 10.5898C98.5565 10.8145 98.6116 11.036 98.718 11.2338C98.8573 11.4643 99.0545 11.6543 99.29 11.7848C99.6446 11.9882 100.021 12.1503 100.413 12.2678C101.008 12.4513 101.612 12.6045 102.222 12.7268C103.419 12.9143 104.535 13.4498 105.43 14.2668C105.776 14.6174 106.047 15.0339 106.228 15.4916C106.409 15.9493 106.495 16.4388 106.483 16.9308V16.9278ZM119.222 13.9218C119.262 14.4082 119.151 14.8949 118.904 15.316C118.658 15.7372 118.287 16.0722 117.844 16.2758C116.426 16.7953 114.917 17.0179 113.409 16.9298H111.388C111.44 17.3016 111.567 17.6588 111.763 17.9791C111.958 18.2994 112.218 18.5761 112.525 18.7918C113.208 19.2653 114.026 19.5065 114.857 19.4798C115.534 19.4759 116.208 19.3947 116.867 19.2378C117.533 19.0937 118.148 18.7724 118.647 18.3078H118.763V19.2728C118.766 19.6506 118.692 20.0251 118.544 20.3728C118.381 20.7308 118.123 21.0369 117.798 21.2578C117.376 21.5418 116.905 21.7452 116.409 21.8578C115.712 22.0165 114.998 22.0897 114.283 22.0758C113.512 22.0749 112.748 21.9265 112.032 21.6388C111.309 21.3528 110.65 20.927 110.092 20.3858C109.488 19.7965 109.01 19.0901 108.689 18.3097C108.367 17.5294 108.208 16.6917 108.222 15.8478C108.209 14.8986 108.359 13.9542 108.666 13.0558C108.933 12.2709 109.356 11.5481 109.909 10.9308C110.441 10.3498 111.093 9.89128 111.82 9.58683C112.595 9.26658 113.426 9.10669 114.264 9.11683C114.899 9.11551 115.529 9.22795 116.125 9.44883C116.709 9.6632 117.247 9.98697 117.71 10.4028C118.176 10.828 118.551 11.3443 118.81 11.9198C119.092 12.5484 119.233 13.231 119.223 13.9198L119.222 13.9218ZM116.329 13.5428C116.348 13.2736 116.301 13.0038 116.19 12.7575C116.08 12.5111 115.911 12.2958 115.697 12.1308C115.191 11.7982 114.591 11.6359 113.986 11.6678C113.633 11.664 113.283 11.7392 112.963 11.8878C112.658 12.0283 112.381 12.2243 112.147 12.4658C111.914 12.7099 111.731 12.9969 111.607 13.3108C111.477 13.6353 111.403 13.9796 111.389 14.3288L111.366 14.7458H112.744C113.477 14.7458 114.075 14.7225 114.537 14.6758C114.907 14.6472 115.273 14.5775 115.628 14.4678C115.848 14.4089 116.042 14.2788 116.18 14.0978C116.283 13.9309 116.334 13.7377 116.329 13.5418V13.5428ZM133.198 15.2288C133.207 16.1565 133.084 17.0807 132.833 17.9738C132.615 18.7564 132.254 19.4923 131.77 20.1448C131.312 20.7511 130.717 21.2396 130.033 21.5698C129.285 21.9163 128.468 22.0873 127.644 22.0698C126.994 22.0794 126.354 21.8998 125.804 21.5528C125.279 21.2242 124.843 20.7707 124.535 20.2328V25.6998H123.564C123.288 25.7 123.013 25.6495 122.755 25.5508C122.496 25.4555 122.259 25.31 122.056 25.1228C121.853 24.9356 121.69 24.7103 121.574 24.4598C121.446 24.1775 121.382 23.8699 121.389 23.5598V16.0698C121.379 15.1161 121.499 14.1655 121.744 13.2438C121.954 12.4381 122.333 11.6862 122.856 11.0378C123.374 10.415 124.035 9.92644 124.782 9.61382C125.671 9.25568 126.624 9.08348 127.582 9.10783C128.369 9.09888 129.147 9.27603 129.852 9.62482C130.528 9.96001 131.132 10.4244 131.629 10.9918C132.131 11.5668 132.523 12.2287 132.787 12.9448C133.061 13.6724 133.201 14.4435 133.2 15.2208L133.198 15.2288ZM130.052 16.0208C130.141 14.9081 129.89 13.7947 129.332 12.8278C129.074 12.4933 128.738 12.2279 128.352 12.0555C127.966 11.883 127.544 11.8089 127.123 11.8398C126.738 11.8219 126.355 11.9048 126.012 12.0801C125.669 12.2555 125.377 12.5173 125.166 12.8398C124.685 13.6215 124.45 14.5298 124.491 15.4468C124.425 16.4725 124.721 17.4889 125.327 18.3188C125.592 18.6468 125.929 18.9087 126.312 19.084C126.695 19.2593 127.114 19.3431 127.535 19.3288C127.889 19.3361 128.239 19.2575 128.556 19.0997C128.873 18.9419 129.147 18.7096 129.354 18.4228C129.849 17.7234 130.095 16.8785 130.054 16.0228L130.052 16.0208ZM145.839 13.9098C145.879 14.3963 145.767 14.8831 145.521 15.3043C145.274 15.7254 144.904 16.0604 144.46 16.2638C143.042 16.7832 141.533 17.0058 140.026 16.9178H138.005C138.055 17.2907 138.182 17.6492 138.378 17.9707C138.573 18.2922 138.833 18.5697 139.141 18.7858C139.825 19.2593 140.643 19.5005 141.474 19.4738C142.151 19.4698 142.826 19.3886 143.485 19.2318C144.151 19.0876 144.766 18.7663 145.264 18.3018H145.38V19.2668C145.384 19.6447 145.309 20.0192 145.161 20.3668C144.998 20.7245 144.74 21.0306 144.415 21.2518C143.993 21.5358 143.521 21.7392 143.025 21.8518C142.328 22.0106 141.614 22.0838 140.899 22.0698C140.128 22.069 139.364 21.9207 138.649 21.6328C137.924 21.3494 137.263 20.9256 136.702 20.3858C136.097 19.7969 135.619 19.0906 135.298 18.3102C134.976 17.5297 134.818 16.6918 134.832 15.8478C134.819 14.8985 134.97 13.9541 135.277 13.0558C135.543 12.2707 135.966 11.5478 136.52 10.9308C137.052 10.3494 137.704 9.89084 138.431 9.58683C139.206 9.26658 140.037 9.10669 140.875 9.11683C141.51 9.11545 142.141 9.22789 142.736 9.44883C143.32 9.66311 143.858 9.98689 144.321 10.4028C144.788 10.8277 145.162 11.344 145.421 11.9198C145.704 12.5482 145.845 13.2309 145.835 13.9198L145.839 13.9098ZM142.935 13.5428C142.954 13.2735 142.907 13.0036 142.796 12.7572C142.686 12.5108 142.516 12.2956 142.302 12.1308C141.796 11.798 141.196 11.6357 140.591 11.6678C140.238 11.6642 139.889 11.7393 139.569 11.8878C139.263 12.0278 138.987 12.2239 138.753 12.4658C138.52 12.7098 138.336 12.9968 138.213 13.3108C138.082 13.6351 138.009 13.9795 137.995 14.3288L137.973 14.7458H139.351C140.084 14.7458 140.681 14.7225 141.142 14.6758C141.513 14.6474 141.88 14.5776 142.235 14.4678C142.454 14.4085 142.648 14.2785 142.786 14.0978C142.889 13.9311 142.941 13.7378 142.935 13.5418V13.5428ZM148.109 9.89683C148.107 9.63176 148.122 9.36683 148.155 9.10383C148.182 8.89634 148.232 8.69247 148.304 8.49583C148.373 8.31213 148.466 8.1383 148.58 7.97883C148.694 7.81783 148.838 7.63782 149.005 7.43882C149.208 7.20335 149.444 6.99826 149.705 6.82983C149.926 6.67904 150.185 6.59533 150.452 6.58883H151.164V9.38583H155.464V10.6488C155.443 11.0196 155.283 11.3687 155.016 11.6268C154.833 11.803 154.614 11.938 154.374 12.023C154.134 12.1081 153.879 12.141 153.626 12.1198H151.168V16.9688C151.106 17.5869 151.287 18.2049 151.673 18.6918C151.868 18.869 152.096 19.0051 152.345 19.092C152.594 19.1789 152.857 19.2149 153.12 19.1978C153.889 19.2503 154.657 19.0996 155.349 18.7608H155.464V19.8608C155.477 20.1489 155.423 20.4361 155.305 20.6994C155.187 20.9627 155.01 21.1947 154.786 21.3768C154.191 21.7873 153.474 21.982 152.753 21.9288C152.118 21.9812 151.479 21.9011 150.876 21.6935C150.274 21.4859 149.721 21.1553 149.253 20.7228C148.447 19.7844 148.039 18.5685 148.116 17.3338L148.109 9.89683Z" fill="#005396"/>
<path d="M45.918 24.8987C45.9113 25.3238 45.7394 25.7296 45.4387 26.0301C45.138 26.3306 44.7321 26.5023 44.307 26.5087C44.097 26.5111 43.8887 26.4698 43.6956 26.3873C43.5024 26.3048 43.3285 26.183 43.185 26.0297C43.0349 25.8823 42.916 25.7063 42.8354 25.5119C42.7548 25.3176 42.7142 25.1091 42.716 24.8987C42.7181 24.4771 42.8865 24.0734 43.1846 23.7753C43.4827 23.4772 43.8864 23.3088 44.308 23.3067C44.5186 23.3048 44.7274 23.3455 44.9219 23.4263C45.1164 23.507 45.2926 23.6262 45.44 23.7767C45.5933 23.9205 45.7151 24.0945 45.7975 24.2878C45.88 24.4812 45.9214 24.6895 45.919 24.8997" fill="#005396"/>
<path d="M65.419 24.8946C65.4131 25.2906 65.2532 25.6687 64.9731 25.9487C64.6931 26.2288 64.315 26.3887 63.919 26.3946C63.7233 26.3968 63.5294 26.3581 63.3494 26.2812C63.1695 26.2042 63.0076 26.0906 62.874 25.9476C62.7342 25.8105 62.6235 25.6465 62.5486 25.4656C62.4737 25.2847 62.4361 25.0905 62.438 24.8946C62.4404 24.5026 62.5972 24.1273 62.8744 23.85C63.1516 23.5728 63.527 23.416 63.919 23.4136C64.1151 23.4119 64.3095 23.4497 64.4906 23.5247C64.6717 23.5998 64.8357 23.7107 64.973 23.8506C65.1154 23.9844 65.2284 24.1463 65.305 24.326C65.3816 24.5057 65.4201 24.6993 65.418 24.8946" fill="#005396"/>
</svg>
