<svg width="27" height="27" viewBox="0 0 27 27" fill="none" xmlns="http://www.w3.org/2000/svg">
<g clip-path="url(#clip0_115_392)">
<path d="M13.033 0C9.492 0 9.05 0.016 7.66 0.078C6.5801 0.100975 5.51179 0.305846 4.5 0.684C3.63036 1.01003 2.84235 1.52195 2.191 2.184C1.52499 2.83621 1.01051 3.62687 0.684 4.5C0.305328 5.51165 0.10044 6.58004 0.078 7.66C0.013 9.05 0 9.492 0 13.033C0 16.574 0.016 17.016 0.078 18.406C0.100641 19.4872 0.305515 20.5569 0.684 21.57C1.01029 22.4395 1.52217 23.2275 2.184 23.879C2.83517 24.5413 3.62323 25.0532 4.493 25.379C5.50612 25.7574 6.57577 25.9622 7.657 25.985C9.047 26.05 9.489 26.063 13.03 26.063C16.571 26.063 17.013 26.047 18.403 25.985C19.4842 25.9618 20.5538 25.757 21.567 25.379C22.433 25.0443 23.2194 24.5323 23.8759 23.8759C24.5323 23.2194 25.0443 22.433 25.379 21.567C25.7575 20.5539 25.9624 19.4842 25.985 18.403C26.05 17.013 26.063 16.571 26.063 13.03C26.063 9.489 26.05 9.05 25.988 7.66C25.9645 6.58015 25.7596 5.51194 25.382 4.5C25.0554 3.63062 24.5436 2.84272 23.882 2.191C23.2313 1.52814 22.4431 1.0161 21.573 0.691C20.5595 0.309275 19.4887 0.102009 18.406 0.078C17.016 0.013 16.573 0 13.033 0ZM13.033 2.346C16.512 2.346 16.927 2.363 18.3 2.423C19.1263 2.43303 19.9446 2.58561 20.719 2.874C21.282 3.08923 21.7933 3.42071 22.2196 3.84682C22.6459 4.27293 22.9775 4.7841 23.193 5.347C23.4803 6.1216 23.6322 6.93988 23.642 7.766C23.704 9.141 23.718 9.554 23.718 13.033C23.718 16.512 23.702 16.927 23.638 18.3C23.6231 19.1263 23.4685 19.9442 23.181 20.719C22.969 21.2842 22.6359 21.7962 22.205 22.219C21.7834 22.6506 21.271 22.983 20.705 23.192C19.9276 23.4793 19.1067 23.6312 18.278 23.641C16.894 23.703 16.487 23.717 13.001 23.717C9.515 23.717 9.106 23.701 7.724 23.637C6.89476 23.622 6.07395 23.4675 5.296 23.18C4.73032 22.9693 4.21911 22.6344 3.8 22.2C3.36403 21.7812 3.02981 21.2681 2.823 20.7C2.53613 19.9223 2.38199 19.1018 2.367 18.273C2.318 16.905 2.301 16.482 2.301 13.012C2.301 9.542 2.318 9.117 2.367 7.733C2.38187 6.90448 2.53602 6.08437 2.823 5.307C3.02673 4.7374 3.36138 4.2236 3.8 3.807C4.21663 3.36887 4.73046 3.03488 5.3 2.832C6.07198 2.54296 6.88779 2.38839 7.712 2.375C9.097 2.326 9.504 2.31 12.989 2.31L13.033 2.346ZM13.033 6.341C11.7094 6.341 10.4156 6.73348 9.31512 7.46881C8.21463 8.20413 7.3569 9.24928 6.8504 10.4721C6.3439 11.6949 6.21137 13.0404 6.46958 14.3385C6.7278 15.6367 7.36515 16.8291 8.30104 17.765C9.23693 18.7009 10.4293 19.3382 11.7275 19.5964C13.0256 19.8546 14.3711 19.7221 15.5939 19.2156C16.8167 18.7091 17.8619 17.8514 18.5972 16.7509C19.3325 15.6504 19.725 14.3566 19.725 13.033C19.725 12.1542 19.5519 11.284 19.2156 10.4721C18.8793 9.66017 18.3864 8.92245 17.765 8.30104C17.1435 7.67963 16.4058 7.1867 15.5939 6.8504C14.782 6.51409 13.9118 6.341 13.033 6.341V6.341ZM13.033 17.378C12.1738 17.378 11.334 17.1232 10.6196 16.6459C9.90524 16.1686 9.34845 15.4901 9.01967 14.6964C8.69088 13.9026 8.60485 13.0292 8.77247 12.1865C8.94008 11.3439 9.35381 10.5698 9.96133 9.96233C10.5688 9.35481 11.3429 8.94108 12.1855 8.77347C13.0282 8.60585 13.9016 8.69188 14.6954 9.02067C15.4891 9.34945 16.1676 9.90624 16.6449 10.6206C17.1222 11.335 17.377 12.1748 17.377 13.034C17.377 13.6044 17.2646 14.1692 17.0463 14.6962C16.828 15.2232 16.508 15.702 16.1046 16.1053C15.7012 16.5086 15.2223 16.8285 14.6953 17.0467C14.1683 17.2649 13.6034 17.3771 13.033 17.377V17.378ZM21.554 6.078C21.554 6.38733 21.4623 6.68971 21.2904 6.94691C21.1186 7.20411 20.8743 7.40457 20.5885 7.52295C20.3027 7.64132 19.9883 7.6723 19.6849 7.61195C19.3815 7.5516 19.1028 7.40264 18.8841 7.18392C18.6654 6.96519 18.5164 6.68651 18.4561 6.38312C18.3957 6.07974 18.4267 5.76527 18.5451 5.47948C18.6634 5.1937 18.8639 4.94944 19.1211 4.77758C19.3783 4.60573 19.6807 4.514 19.99 4.514C20.4045 4.51426 20.802 4.67899 21.0953 4.97202C21.3885 5.26506 21.5535 5.66246 21.554 6.077V6.078Z" fill="#E4405F"/>
</g>
<defs>
<clipPath id="clip0_115_392">
<rect width="26.066" height="26.066" fill="white"/>
</clipPath>
</defs>
</svg>
