<svg width="19" height="20" viewBox="0 0 19 20" fill="none" xmlns="http://www.w3.org/2000/svg">
<g clip-path="url(#clip0_105_410)">
<path d="M17.788 18.0098L14.178 14.0208C15.6632 12.5031 16.513 10.4757 16.5539 8.35265C16.5949 6.22958 15.8239 4.17096 14.3984 2.59712C12.9728 1.02329 11.0003 0.0529554 8.88354 -0.115734C6.76679 -0.284424 4.66548 0.36125 3.00868 1.68945C1.35188 3.01764 0.264563 4.92818 -0.0312526 7.03093C-0.327068 9.13369 0.190932 11.2701 1.41698 13.0038C2.64302 14.7376 4.48463 15.9379 6.56577 16.3598C8.6469 16.7817 10.8106 16.3932 12.615 15.2738L16.306 19.3518C16.393 19.453 16.4994 19.5359 16.6189 19.5953C16.7385 19.6548 16.8687 19.6898 17.002 19.6981C17.1352 19.7065 17.2688 19.688 17.3948 19.6439C17.5208 19.5998 17.6367 19.5309 17.7357 19.4413C17.8347 19.3517 17.9147 19.2432 17.971 19.1221C18.0274 19.0011 18.0589 18.87 18.0638 18.7366C18.0687 18.6032 18.0468 18.4701 17.9994 18.3453C17.9521 18.2205 17.8802 18.1064 17.788 18.0098ZM8.263 14.5258C7.0243 14.5258 5.81341 14.1585 4.78346 13.4703C3.75352 12.7821 2.95077 11.8039 2.47674 10.6595C2.00271 9.51511 1.87868 8.25583 2.12034 7.04092C2.362 5.82602 2.95849 4.71006 3.83439 3.83416C4.71029 2.95827 5.82625 2.36178 7.04115 2.12012C8.25605 1.87846 9.51533 2.00249 10.6597 2.47652C11.8042 2.95055 12.7823 3.75329 13.4705 4.78324C14.1587 5.81318 14.526 7.02407 14.526 8.26277C14.5239 9.92318 13.8634 11.515 12.6893 12.689C11.5152 13.8631 9.9234 14.5237 8.263 14.5258" fill="#555555"/>
</g>
<defs>
<clipPath id="clip0_105_410">
<rect width="18.047" height="19.681" fill="white"/>
</clipPath>
</defs>
</svg>
