<svg width="29" height="23" viewBox="0 0 29 23" fill="none" xmlns="http://www.w3.org/2000/svg">
<g clip-path="url(#clip0_115_390)">
<path d="M28.2 2.73507C27.1424 3.20061 26.0221 3.5079 24.875 3.64707C26.0828 2.92115 26.9871 1.78274 27.421 0.44207C26.2794 1.10679 25.0356 1.57783 23.74 1.83607C22.9469 0.986674 21.9166 0.395586 20.783 0.139685C19.6494 -0.116216 18.4651 -0.0250873 17.384 0.401218C16.3029 0.827524 15.3751 1.56928 14.7213 2.53C14.0675 3.49073 13.7179 4.62597 13.718 5.78807C13.7178 6.23327 13.7678 6.67707 13.867 7.11107C11.5652 7.00035 9.31256 6.40578 7.25595 5.3661C5.19934 4.32642 3.38493 2.86499 1.931 1.07707C1.4117 1.95958 1.14079 2.96613 1.147 3.99007C1.1462 4.94378 1.38091 5.88292 1.83029 6.72412C2.27967 7.56531 2.92982 8.28253 3.723 8.81207C2.80339 8.78288 1.90407 8.53431 1.1 8.08707V8.15407C1.10042 9.4915 1.56305 10.7877 2.40953 11.8232C3.25602 12.8586 4.43435 13.5697 5.745 13.8361C4.89685 14.0643 4.00817 14.0985 3.145 13.9361C3.51728 15.0873 4.23961 16.0936 5.21123 16.8146C6.18285 17.5356 7.3553 17.9354 8.565 17.9581C6.51617 19.566 3.98643 20.4387 1.382 20.4361C0.920309 20.4374 0.458912 20.4127 0 20.3621C2.65659 22.0629 5.7456 22.9653 8.9 22.9621C19.558 22.9621 25.379 14.1381 25.379 6.49807C25.379 6.25207 25.379 6.00407 25.361 5.75607C26.4996 4.93791 27.4819 3.92175 28.261 2.75607L28.2 2.73507Z" fill="#1DA1F2"/>
</g>
<defs>
<clipPath id="clip0_115_390">
<rect width="28.253" height="22.963" fill="white"/>
</clipPath>
</defs>
</svg>
