<svg width="35" height="24" viewBox="0 0 35 24" fill="none" xmlns="http://www.w3.org/2000/svg">
<g clip-path="url(#clip0_115_382)">
<path d="M33.508 3.69303C33.3094 2.98256 32.931 2.33529 32.4094 1.81365C31.8878 1.29202 31.2405 0.913638 30.53 0.715028C27.863 2.80738e-05 17.13 2.81435e-05 17.13 2.81435e-05C17.13 2.81435e-05 6.41803 -0.015972 3.72303 0.715028C3.01256 0.913638 2.36528 1.29202 1.84365 1.81365C1.32202 2.33529 0.943637 2.98256 0.745027 3.69303C0.239761 6.42419 -0.00965249 9.19654 2.70991e-05 11.974C-0.0082558 14.7409 0.241154 17.5025 0.745027 20.223C0.943637 20.9335 1.32202 21.5808 1.84365 22.1024C2.36528 22.624 3.01256 23.0024 3.72303 23.201C6.38803 23.917 17.123 23.917 17.123 23.917C17.123 23.917 27.83 23.917 30.523 23.201C31.2335 23.0024 31.8808 22.624 32.4024 22.1024C32.924 21.5808 33.3024 20.9335 33.501 20.223C33.9942 17.5015 34.2329 14.7399 34.214 11.974C34.2367 9.19775 34.0003 6.42541 33.508 3.69303V3.69303ZM13.695 17.096V6.83603L22.635 11.974L13.695 17.096Z" fill="#FF0000"/>
</g>
<defs>
<clipPath id="clip0_115_382">
<rect width="34.222" height="23.917" fill="white"/>
</clipPath>
</defs>
</svg>
